<svg width="21" height="13" viewBox="0 0 21 13" fill="none" xmlns="http://www.w3.org/2000/svg">
<path fill-rule="evenodd" clip-rule="evenodd" d="M10.1332 3.20222C10.1332 2.46985 9.94355 1.84213 9.56537 1.31662C8.93511 0.460829 7.86672 0.022325 6.35645 0H0.373291V12.3552H5.95237C6.58146 12.3552 7.16344 12.3011 7.70174 12.1894C8.24012 12.0766 8.70541 11.8708 9.10009 11.5687C9.45111 11.3054 9.74327 10.9809 9.9765 10.5966C10.3452 10.0158 10.529 9.35862 10.529 8.62625C10.529 7.9162 10.3676 7.312 10.0472 6.81594C9.72323 6.31862 9.24731 5.9554 8.61587 5.72503C9.03177 5.51341 9.34631 5.27829 9.56068 5.02202C9.94355 4.56357 10.1332 3.95581 10.1332 3.20222ZM18.4818 2.11367H13.176V0.576018H18.4818V2.11367ZM13.7945 6.88292C13.8817 6.28806 14.0949 5.8167 14.433 5.46868C14.7711 5.12075 15.2493 4.94674 15.8619 4.94674C16.4274 4.94674 16.8998 5.11014 17.2837 5.43813C17.6631 5.76849 17.8775 6.24808 17.921 6.88292H13.7945ZM18.0142 3.40441C18.6538 3.68894 19.1804 4.14034 19.595 4.75634C19.9732 5.29942 20.2158 5.92951 20.3266 6.64542C20.3914 7.06397 20.4173 7.67055 20.4067 8.45937H13.7355C13.7756 9.37509 14.0913 10.0182 14.6945 10.3861C15.0597 10.6153 15.4991 10.7305 16.0151 10.7305C16.5581 10.7305 17.0022 10.5906 17.3427 10.312C17.53 10.1604 17.6949 9.95111 17.8363 9.68313H20.2806C20.2158 10.2238 19.919 10.7752 19.3936 11.3348C18.5737 12.2223 17.4252 12.6667 15.9491 12.6667C14.7298 12.6667 13.6543 12.2929 12.7248 11.5428C11.7907 10.794 11.3266 9.5738 11.3266 7.88565C11.3266 6.30215 11.7471 5.08781 12.587 4.24263C13.4293 3.39974 14.519 2.97533 15.8607 2.97533C16.6582 2.97533 17.3756 3.11878 18.0142 3.40441ZM2.84128 10.2109V6.91585H5.89C6.42008 6.92052 6.83355 6.99106 7.12806 7.12509C7.65463 7.36607 7.91619 7.80688 7.91619 8.45113C7.91619 9.2105 7.64523 9.72311 7.10216 9.99346C6.80413 10.138 6.38471 10.2109 5.84758 10.2109H2.84128ZM2.84128 2.14542V4.87153H5.85227C6.38831 4.87153 6.82533 4.76924 7.16226 4.56468C7.49677 4.36019 7.66527 3.99808 7.66527 3.4808C7.66527 2.9036 7.44378 2.52392 7.0008 2.33819C6.61684 2.21002 6.12909 2.14542 5.53655 2.14542H2.84128Z" fill="white"/>
</svg>
