<svg width="25" height="25" viewBox="0 0 25 25" fill="none" xmlns="http://www.w3.org/2000/svg">
<path fill-rule="evenodd" clip-rule="evenodd" d="M15.2575 11.7993C15.0073 11.2152 14.7468 10.6326 14.4695 10.0559C16.8394 9.01757 18.7442 7.60742 20.1632 5.81949C21.5478 7.47382 22.4165 9.57496 22.5449 11.8757C19.9027 11.4378 17.4726 11.4134 15.2575 11.7993ZM18.0479 21.0076C17.5981 18.5658 16.9392 16.1789 16.0778 13.85C18.0024 13.5746 20.1207 13.6459 22.4378 14.0533C21.9902 16.9456 20.3584 19.4431 18.0479 21.0076ZM6.15926 20.5623C8.17995 17.356 10.759 15.2698 13.9551 14.3064C14.9068 16.818 15.6068 19.4023 16.0521 22.0489C12.7225 23.3507 8.98191 22.7911 6.15926 20.5623ZM2.24408 12.1904C6.19227 12.1845 9.59898 11.7258 12.4525 10.8174C12.6917 11.3102 12.9206 11.8052 13.14 12.304C9.67309 13.3994 6.81521 15.6468 4.58614 19.0297C2.98147 17.0814 2.18318 14.7191 2.24408 12.1904ZM7.81308 3.28492C9.17929 5.09363 10.3892 6.958 11.4421 8.87062C8.94743 9.61355 5.97216 9.99503 2.53023 10.0188C3.24121 7.07601 5.20027 4.62902 7.81308 3.28492ZM18.6026 4.3173C17.367 5.93008 15.6603 7.20515 13.4855 8.1366C12.4437 6.20543 11.2528 4.32175 9.90715 2.49301C12.9536 1.70777 16.1035 2.36535 18.6026 4.3173ZM12.4018 0C5.60162 0 0.0883789 5.57679 0.0883789 12.4554C0.0883789 19.334 5.60162 24.9108 12.4018 24.9108C19.202 24.9108 24.7153 19.334 24.7153 12.4554C24.7153 5.57679 19.202 0 12.4018 0Z" fill="white"/>
</svg>
