<svg width="27" height="18" viewBox="0 0 27 18" fill="none" xmlns="http://www.w3.org/2000/svg">
<path fill-rule="evenodd" clip-rule="evenodd" d="M25.5538 16.842C25.2779 17.006 24.9564 17.1 24.6133 17.1H2.03559C1.69246 17.1 1.37104 17.006 1.09512 16.842L8.62858 9.22174L10.4879 11.1025C11.2065 11.8294 12.1616 12.1916 13.3244 12.1916C14.4873 12.1916 15.4424 11.8294 16.161 11.1025L18.0203 9.22174L25.5538 16.842ZM26.2179 16.1703L18.6844 8.54999L26.2179 0.929693C26.3799 1.20879 26.4729 1.53392 26.4729 1.881V15.219C26.4729 15.5661 26.3799 15.8912 26.2179 16.1703ZM0.431029 16.1703C0.268959 15.8912 0.176025 15.5661 0.176025 15.219V1.881C0.176025 1.53392 0.268959 1.20879 0.431029 0.929693L7.96449 8.54999L0.431029 16.1703ZM25.5538 0.257942L15.4969 10.4308C14.9632 10.9706 14.2487 11.2417 13.3244 11.2417C12.4002 11.2417 11.6857 10.9706 11.152 10.4308L1.09512 0.257942C1.37104 0.0940045 1.69246 0 2.03559 0H24.6133C24.9564 0 25.2779 0.0940045 25.5538 0.257942Z" fill="white"/>
</svg>
