<svg width="399" height="451" viewBox="0 0 399 451" fill="none" xmlns="http://www.w3.org/2000/svg">
<path d="M143.5 164.5H259.5V94.5H143.5V164.5Z" fill="url(#paint0_linear)"/>
<path d="M143.5 94.5L1 164.5H143.5V94.5Z" fill="url(#paint1_linear)"/>
<path d="M259.5 164.5L398 94.5H259.5V164.5Z" fill="url(#paint2_linear)"/>
<path d="M259.5 260.5L398 190.5H259.5V260.5Z" fill="url(#paint3_linear)"/>
<path d="M143.5 260.5H259.5V190.5H143.5V260.5Z" fill="url(#paint4_linear)"/>
<path d="M143.5 190.5L1 260.5H143.5V190.5Z" fill="url(#paint5_linear)"/>
<path d="M143.5 284.5L1 354.5H143.5V284.5Z" fill="url(#paint6_linear)"/>
<path d="M259.5 284.5H143.5V354.5H259.5V284.5Z" fill="url(#paint7_linear)"/>
<path d="M259.5 354.5L398 284.5H259.5V354.5Z" fill="url(#paint8_linear)"/>
<path d="M398 380.5H259.5V450.5L398 380.5Z" fill="url(#paint9_linear)"/>
<path d="M143.5 380.5L1 450.5H259.5V380.5H143.5Z" fill="url(#paint10_linear)"/>
<path d="M143.5 72H259.5L398 1H143.5V72Z" fill="url(#paint11_linear)"/>
<path d="M143.5 1L1 72H143.5V1Z" fill="url(#paint12_linear)"/>
<path d="M1 450.5L143.5 380.5M1 450.5H259.5M1 450.5V72M143.5 380.5V354.5M143.5 380.5H259.5M398 380.5L259.5 450.5M398 380.5V1M398 380.5H259.5M259.5 450.5V380.5M143.5 284.5L1 354.5H143.5M143.5 284.5V354.5M143.5 284.5H259.5M259.5 354.5L398 284.5H259.5M259.5 354.5H143.5M259.5 354.5V284.5M143.5 190.5L1 260.5H143.5M143.5 190.5H259.5M143.5 190.5V260.5M259.5 260.5L398 190.5H259.5M259.5 260.5V190.5M259.5 260.5H143.5M143.5 94.5L1 164.5H143.5M143.5 94.5H259.5M143.5 94.5V164.5M259.5 164.5L398 94.5H259.5M259.5 164.5H143.5M259.5 164.5V94.5M143.5 1L1 72M143.5 1H398M143.5 1V72M1 72H143.5M259.5 72L398 1M259.5 72V94.5M259.5 72H143.5M143.5 164.5V260.5M143.5 164.5V72M259.5 94.5V190.5M259.5 190.5V284.5M143.5 260.5V354.5M259.5 284.5V380.5" stroke="url(#paint13_linear)"/>
<path d="M191.9 416.465C192.971 417.531 193.49 419.033 193.287 420.482C193.279 420.538 193.283 420.595 193.3 420.649C193.317 420.703 193.345 420.752 193.383 420.794C193.422 420.836 193.469 420.869 193.522 420.892C193.575 420.914 193.632 420.924 193.689 420.922H193.691L196.773 420.921C196.828 420.949 196.888 420.965 196.949 420.967C197.011 420.968 197.073 420.954 197.129 420.928L200.23 420.917C200.288 420.917 200.345 420.904 200.397 420.88C200.45 420.856 200.497 420.821 200.535 420.777C200.573 420.734 200.601 420.682 200.618 420.627C200.634 420.572 200.638 420.513 200.631 420.456C200.427 418.984 200.916 417.613 202.045 416.491C202.046 416.49 202.047 416.488 202.049 416.487C203.29 415.22 203.973 413.588 203.973 411.894C203.973 410.153 203.274 408.505 202.004 407.253C200.647 405.916 198.829 405.194 196.883 405.223C195.092 405.253 193.378 405.957 192.084 407.195C190.769 408.445 190.028 410.074 189.999 411.781C189.985 412.649 190.146 413.512 190.473 414.316C190.799 415.121 191.285 415.852 191.9 416.465ZM190.812 411.795C190.837 410.307 191.488 408.883 192.644 407.784C193.79 406.687 195.308 406.062 196.895 406.036C196.927 406.035 196.96 406.035 196.992 406.035C198.682 406.035 200.256 406.671 201.433 407.832C202.547 408.93 203.161 410.373 203.161 411.894C203.161 413.374 202.56 414.802 201.47 415.917C200.29 417.091 199.7 418.564 199.781 420.107L197.355 420.117V412.835C197.404 412.895 197.456 412.967 197.517 413.055C197.748 413.385 198.064 413.838 198.701 413.838C199.338 413.838 199.654 413.385 199.885 413.055C200.101 412.745 200.208 412.619 200.402 412.619C200.51 412.619 200.613 412.577 200.69 412.5C200.766 412.424 200.809 412.321 200.809 412.213C200.809 412.105 200.766 412.002 200.69 411.926C200.613 411.85 200.51 411.807 200.402 411.807C199.765 411.807 199.449 412.259 199.219 412.59C199.002 412.9 198.895 413.026 198.701 413.026C198.507 413.026 198.4 412.899 198.184 412.59C197.953 412.259 197.637 411.807 197 411.807C196.363 411.807 196.047 412.259 195.816 412.59C195.6 412.9 195.493 413.025 195.299 413.025C195.105 413.025 194.998 412.899 194.782 412.59C194.551 412.259 194.235 411.807 193.598 411.807C193.49 411.807 193.387 411.849 193.31 411.926C193.234 412.002 193.191 412.105 193.191 412.213C193.191 412.321 193.234 412.424 193.31 412.5C193.387 412.576 193.49 412.619 193.598 412.619C193.792 412.619 193.899 412.745 194.115 413.055C194.346 413.385 194.662 413.838 195.299 413.838C195.936 413.838 196.252 413.385 196.482 413.055C196.504 413.024 196.524 412.996 196.543 412.969V420.12L194.136 420.13C194.215 418.579 193.612 417.022 192.473 415.888C191.935 415.353 191.511 414.714 191.226 414.011C190.94 413.308 190.8 412.554 190.812 411.795Z" fill="#BCBCBC"/>
<path d="M196.848 403.784C196.955 403.784 197.059 403.741 197.135 403.665C197.211 403.589 197.254 403.485 197.254 403.378V400.787C197.254 400.679 197.211 400.576 197.135 400.5C197.059 400.424 196.955 400.381 196.848 400.381C196.74 400.381 196.637 400.424 196.56 400.5C196.484 400.576 196.441 400.679 196.441 400.787V403.378C196.441 403.485 196.484 403.589 196.56 403.665C196.637 403.741 196.74 403.784 196.848 403.784ZM203.539 406.813C203.639 406.813 203.736 406.776 203.81 406.709L205.814 404.912C205.894 404.84 205.942 404.739 205.948 404.631C205.954 404.524 205.917 404.418 205.845 404.338C205.773 404.258 205.672 404.21 205.564 404.204C205.457 404.198 205.351 404.235 205.271 404.307L203.268 406.105C203.206 406.16 203.163 406.232 203.144 406.312C203.125 406.392 203.13 406.476 203.16 406.552C203.189 406.629 203.241 406.695 203.309 406.742C203.377 406.788 203.457 406.813 203.539 406.813V406.813ZM190.096 406.462C190.174 406.534 190.277 406.573 190.383 406.57C190.49 406.567 190.591 406.523 190.665 406.446C190.739 406.369 190.78 406.267 190.779 406.16C190.778 406.054 190.735 405.952 190.659 405.877L188.74 404.026C188.701 403.988 188.656 403.958 188.606 403.938C188.556 403.917 188.503 403.907 188.449 403.908C188.395 403.908 188.341 403.919 188.292 403.941C188.242 403.962 188.198 403.993 188.16 404.032C188.123 404.071 188.093 404.117 188.074 404.167C188.054 404.217 188.045 404.271 188.047 404.325C188.048 404.379 188.06 404.432 188.082 404.481C188.105 404.53 188.136 404.575 188.176 404.611L190.096 406.462Z" fill="#BCBCBC"/>
<path d="M200.352 422.191C200.352 422.084 200.309 421.98 200.233 421.904C200.156 421.828 200.053 421.785 199.945 421.785H194.055C193.947 421.785 193.844 421.828 193.767 421.904C193.691 421.98 193.648 422.084 193.648 422.191V425.238C193.648 425.346 193.691 425.449 193.767 425.526C193.844 425.602 193.947 425.645 194.055 425.645H199.945C200.053 425.645 200.156 425.602 200.233 425.526C200.309 425.449 200.352 425.346 200.352 425.238V422.191ZM199.539 424.832H194.461V422.598H199.539V424.832Z" fill="#BCBCBC"/>
<path d="M186.437 314.156L196.729 320.094C196.811 320.141 196.905 320.167 197 320.167C197.095 320.167 197.188 320.141 197.271 320.094L207.562 314.156C207.645 314.109 207.713 314.041 207.761 313.958C207.91 313.699 207.822 313.368 207.562 313.218L197.271 307.286C197.103 307.191 196.897 307.191 196.729 307.286L186.437 313.218C186.355 313.266 186.287 313.334 186.239 313.416C186.09 313.675 186.178 314.007 186.437 314.156ZM197 308.381L206.207 313.688L197 319L187.793 313.688L197 308.381ZM207.019 321.82L197 327.664L186.981 321.82C186.723 321.669 186.391 321.757 186.241 322.015C186.09 322.273 186.177 322.605 186.435 322.755L196.727 328.759C196.81 328.808 196.904 328.833 197 328.833C197.096 328.833 197.19 328.808 197.273 328.759L207.564 322.755C207.823 322.605 207.91 322.273 207.759 322.015C207.608 321.757 207.277 321.669 207.019 321.82ZM207.019 317.487L197 323.331L186.981 317.487C186.723 317.336 186.391 317.423 186.241 317.682C186.09 317.94 186.177 318.271 186.435 318.422L196.727 324.426C196.81 324.475 196.904 324.5 197 324.5C197.096 324.5 197.19 324.475 197.273 324.426L207.564 318.422C207.823 318.271 207.91 317.94 207.759 317.682C207.608 317.423 207.277 317.336 207.019 317.487Z" fill="#BCBCBC"/>
<path d="M194.965 213.25C194.965 214.37 195.876 215.281 196.997 215.281C198.117 215.281 199.028 214.37 199.028 213.25C199.028 212.13 198.117 211.219 196.997 211.219C195.876 211.219 194.965 212.13 194.965 213.25ZM198.215 213.25C198.215 213.922 197.669 214.469 196.997 214.469C196.325 214.469 195.778 213.922 195.778 213.25C195.778 212.578 196.325 212.031 196.997 212.031C197.669 212.031 198.215 212.578 198.215 213.25ZM184.816 232.75C184.816 233.87 185.726 234.781 186.847 234.781C187.967 234.781 188.878 233.87 188.878 232.75C188.878 231.63 187.967 230.719 186.847 230.719C185.726 230.719 184.816 231.63 184.816 232.75ZM186.847 231.531C187.519 231.531 188.066 232.078 188.066 232.75C188.066 233.422 187.519 233.969 186.847 233.969C186.175 233.969 185.628 233.422 185.628 232.75C185.628 232.078 186.175 231.531 186.847 231.531ZM209.184 232.75C209.184 231.63 208.273 230.719 207.153 230.719C206.032 230.719 205.122 231.63 205.122 232.75C205.122 233.87 206.032 234.781 207.153 234.781C208.273 234.781 209.184 233.87 209.184 232.75ZM207.153 233.969C206.481 233.969 205.934 233.422 205.934 232.75C205.934 232.078 206.481 231.531 207.153 231.531C207.825 231.531 208.372 232.078 208.372 232.75C208.372 233.422 207.825 233.969 207.153 233.969ZM196.597 234.781C197.717 234.781 198.628 233.87 198.628 232.75C198.628 231.63 197.717 230.719 196.597 230.719C195.476 230.719 194.566 231.63 194.566 232.75C194.566 233.87 195.476 234.781 196.597 234.781ZM196.597 231.531C197.269 231.531 197.816 232.078 197.816 232.75C197.816 233.422 197.269 233.969 196.597 233.969C195.925 233.969 195.378 233.422 195.378 232.75C195.378 232.078 195.925 231.531 196.597 231.531ZM191.722 225.031C192.842 225.031 193.753 224.12 193.753 223C193.753 221.88 192.842 220.969 191.722 220.969C190.601 220.969 189.691 221.88 189.691 223C189.691 224.12 190.601 225.031 191.722 225.031ZM191.722 221.781C192.394 221.781 192.941 222.328 192.941 223C192.941 223.672 192.394 224.219 191.722 224.219C191.05 224.219 190.503 223.672 190.503 223C190.503 222.328 191.05 221.781 191.722 221.781ZM202.284 225.031C203.405 225.031 204.316 224.12 204.316 223C204.316 221.88 203.405 220.969 202.284 220.969C201.164 220.969 200.253 221.88 200.253 223C200.253 224.12 201.164 225.031 202.284 225.031ZM202.284 221.781C202.956 221.781 203.503 222.328 203.503 223C203.503 223.672 202.956 224.219 202.284 224.219C201.612 224.219 201.066 223.672 201.066 223C201.066 222.328 201.612 221.781 202.284 221.781ZM201.878 218.938V219.75C201.878 219.858 201.921 219.961 201.997 220.037C202.073 220.113 202.177 220.156 202.284 220.156C202.392 220.156 202.496 220.113 202.572 220.037C202.648 219.961 202.691 219.858 202.691 219.75V218.938C202.691 218.266 202.144 217.719 201.472 217.719H197.816C197.708 217.719 197.605 217.676 197.529 217.6C197.453 217.523 197.41 217.42 197.409 217.312V216.5C197.409 216.392 197.367 216.289 197.29 216.213C197.214 216.137 197.111 216.094 197.003 216.094C196.895 216.094 196.792 216.137 196.716 216.213C196.64 216.289 196.597 216.392 196.597 216.5V217.312C196.597 217.536 196.414 217.719 196.191 217.719H192.534C191.862 217.719 191.316 218.266 191.316 218.938V219.75C191.316 219.858 191.358 219.961 191.435 220.037C191.511 220.113 191.614 220.156 191.722 220.156C191.83 220.156 191.933 220.113 192.009 220.037C192.085 219.961 192.128 219.858 192.128 219.75V218.938C192.128 218.714 192.311 218.531 192.534 218.531H196.191C196.504 218.531 196.787 218.409 197.003 218.214C197.219 218.409 197.502 218.531 197.816 218.531H201.472C201.695 218.531 201.878 218.714 201.878 218.938ZM191.722 227.964C191.938 228.159 192.221 228.281 192.534 228.281H195.784C196.008 228.281 196.191 228.464 196.191 228.688V229.5C196.191 229.608 196.233 229.711 196.31 229.787C196.386 229.863 196.489 229.906 196.597 229.906C196.705 229.906 196.808 229.863 196.884 229.787C196.96 229.711 197.003 229.608 197.003 229.5V228.688C197.003 228.016 196.456 227.469 195.784 227.469H192.534C192.427 227.469 192.324 227.426 192.247 227.35C192.171 227.273 192.128 227.17 192.128 227.062V226.25C192.128 226.142 192.085 226.039 192.009 225.963C191.933 225.887 191.83 225.844 191.722 225.844C191.614 225.844 191.511 225.887 191.435 225.963C191.358 226.039 191.316 226.142 191.316 226.25V227.062C191.316 227.286 191.133 227.469 190.909 227.469H187.659C186.987 227.469 186.441 228.016 186.441 228.688V229.5C186.441 229.608 186.483 229.711 186.56 229.787C186.636 229.863 186.739 229.906 186.847 229.906C186.955 229.906 187.058 229.863 187.134 229.787C187.21 229.711 187.253 229.608 187.253 229.5V228.688C187.253 228.464 187.436 228.281 187.659 228.281H190.909C191.222 228.281 191.506 228.159 191.722 227.964ZM203.097 228.281H206.347C206.57 228.281 206.753 228.464 206.753 228.688V229.5C206.753 229.608 206.796 229.711 206.872 229.787C206.948 229.863 207.052 229.906 207.159 229.906C207.267 229.906 207.371 229.863 207.447 229.787C207.523 229.711 207.566 229.608 207.566 229.5V228.688C207.566 228.016 207.019 227.469 206.347 227.469H203.097C202.989 227.469 202.886 227.426 202.81 227.35C202.734 227.273 202.691 227.17 202.691 227.062V226.25C202.691 226.142 202.648 226.039 202.572 225.963C202.496 225.887 202.392 225.844 202.284 225.844C202.177 225.844 202.073 225.887 201.997 225.963C201.921 226.039 201.878 226.142 201.878 226.25V227.062C201.878 227.734 202.425 228.281 203.097 228.281Z" fill="#BCBCBC"/>
<path d="M207.972 122.592H201.316L200.64 120.98C201.212 120.564 201.628 119.836 201.628 119.056C201.628 117.912 200.848 116.976 199.756 116.716V116.04C199.756 115.728 199.548 115.52 199.236 115.52C198.924 115.52 198.716 115.728 198.716 116.04V116.716C197.624 116.976 196.844 117.912 196.844 119.056C196.844 119.836 197.208 120.512 197.832 120.98L197.208 122.592H186.028C185.196 122.592 184.52 123.268 184.52 124.1V138.92C184.52 139.804 185.196 140.48 186.028 140.48H207.972C208.804 140.48 209.48 139.804 209.48 138.972V124.1C209.48 123.268 208.804 122.592 207.972 122.592ZM199.236 117.704C199.964 117.704 200.588 118.328 200.588 119.056C200.588 119.784 199.964 120.408 199.236 120.408C198.508 120.408 197.884 119.784 197.884 119.056C197.884 118.328 198.456 117.704 199.236 117.704ZM198.716 121.448C198.872 121.5 199.028 121.5 199.184 121.5C199.34 121.5 199.496 121.5 199.652 121.448L200.952 124.672C200.536 124.776 200.12 124.828 199.704 124.88V124.516C199.704 124.204 199.496 123.996 199.184 123.996C198.872 123.996 198.664 124.204 198.664 124.516V124.88C198.248 124.828 197.832 124.776 197.416 124.672C197.468 124.568 198.82 121.24 198.716 121.448ZM185.56 124.1C185.56 123.84 185.768 123.632 186.028 123.632H190.344V123.788C190.344 126.492 188.212 128.676 185.56 128.728V124.1ZM208.44 138.972C208.44 139.232 208.232 139.44 207.972 139.44H186.028C185.768 139.44 185.56 139.232 185.56 138.972V129.768C188.784 129.664 191.384 127.064 191.384 123.788V123.632H196.688L196.428 124.308C196.324 124.256 196.272 124.256 196.168 124.204C195.908 124.1 195.596 124.204 195.492 124.464C195.388 124.724 195.492 125.036 195.752 125.14C195.856 125.192 195.96 125.192 196.012 125.244L194.764 128.312C194.66 128.572 194.764 128.884 195.076 128.988C195.336 129.092 195.648 128.988 195.752 128.676L197 125.556C197.52 125.712 198.092 125.764 198.664 125.816V126.024C198.664 126.336 198.872 126.544 199.184 126.544C199.496 126.544 199.704 126.336 199.704 126.024V125.816C200.276 125.764 200.796 125.712 201.368 125.556L202.616 128.728C202.72 128.988 203.032 129.144 203.292 129.04C203.552 128.936 203.708 128.624 203.604 128.364L202.356 125.296C202.46 125.244 202.564 125.244 202.616 125.192C202.876 125.088 202.98 124.776 202.876 124.516C202.772 124.256 202.46 124.152 202.2 124.256C202.096 124.308 202.044 124.308 201.94 124.36L201.68 123.684H207.92C208.18 123.684 208.388 123.892 208.388 124.152V138.972H208.44Z" fill="#BCBCBC"/>
<path d="M205.372 136.944H188.628C188.316 136.944 188.108 137.152 188.108 137.464C188.108 137.776 188.316 137.984 188.628 137.984H205.32C205.632 137.984 205.84 137.776 205.84 137.464C205.84 137.152 205.632 136.944 205.372 136.944Z" fill="#BCBCBC"/>
<path d="M185.083 33C185.083 33 189.417 24.3333 197 24.3333C204.583 24.3333 208.917 33 208.917 33C208.917 33 204.583 41.6667 197 41.6667C189.417 41.6667 185.083 33 185.083 33Z" stroke="#BCBCBC" stroke-linecap="round" stroke-linejoin="round"/>
<path d="M197 36.25C198.795 36.25 200.25 34.7949 200.25 33C200.25 31.2051 198.795 29.75 197 29.75C195.205 29.75 193.75 31.2051 193.75 33C193.75 34.7949 195.205 36.25 197 36.25Z" stroke="#BCBCBC" stroke-linecap="round" stroke-linejoin="round"/>
<defs>
<linearGradient id="paint0_linear" x1="200" y1="-62" x2="200" y2="564" gradientUnits="userSpaceOnUse">
<stop stop-color="white" stop-opacity="0.2"/>
<stop offset="1" stop-color="white" stop-opacity="0.58"/>
</linearGradient>
<linearGradient id="paint1_linear" x1="200" y1="-62" x2="200" y2="564" gradientUnits="userSpaceOnUse">
<stop stop-color="white" stop-opacity="0.2"/>
<stop offset="1" stop-color="white" stop-opacity="0.58"/>
</linearGradient>
<linearGradient id="paint2_linear" x1="200" y1="-62" x2="200" y2="564" gradientUnits="userSpaceOnUse">
<stop stop-color="white" stop-opacity="0.2"/>
<stop offset="1" stop-color="white" stop-opacity="0.58"/>
</linearGradient>
<linearGradient id="paint3_linear" x1="200" y1="-62" x2="200" y2="564" gradientUnits="userSpaceOnUse">
<stop stop-color="white" stop-opacity="0.2"/>
<stop offset="1" stop-color="white" stop-opacity="0.58"/>
</linearGradient>
<linearGradient id="paint4_linear" x1="200" y1="-62" x2="200" y2="564" gradientUnits="userSpaceOnUse">
<stop stop-color="white" stop-opacity="0.2"/>
<stop offset="1" stop-color="white" stop-opacity="0.58"/>
</linearGradient>
<linearGradient id="paint5_linear" x1="200" y1="-62" x2="200" y2="564" gradientUnits="userSpaceOnUse">
<stop stop-color="white" stop-opacity="0.2"/>
<stop offset="1" stop-color="white" stop-opacity="0.58"/>
</linearGradient>
<linearGradient id="paint6_linear" x1="200" y1="-62" x2="200" y2="564" gradientUnits="userSpaceOnUse">
<stop stop-color="white" stop-opacity="0.2"/>
<stop offset="1" stop-color="white" stop-opacity="0.58"/>
</linearGradient>
<linearGradient id="paint7_linear" x1="200" y1="-62" x2="200" y2="564" gradientUnits="userSpaceOnUse">
<stop stop-color="white" stop-opacity="0.2"/>
<stop offset="1" stop-color="white" stop-opacity="0.58"/>
</linearGradient>
<linearGradient id="paint8_linear" x1="200" y1="-62" x2="200" y2="564" gradientUnits="userSpaceOnUse">
<stop stop-color="white" stop-opacity="0.2"/>
<stop offset="1" stop-color="white" stop-opacity="0.58"/>
</linearGradient>
<linearGradient id="paint9_linear" x1="200" y1="-62" x2="200" y2="564" gradientUnits="userSpaceOnUse">
<stop stop-color="white" stop-opacity="0.2"/>
<stop offset="1" stop-color="white" stop-opacity="0.58"/>
</linearGradient>
<linearGradient id="paint10_linear" x1="200" y1="-62" x2="200" y2="564" gradientUnits="userSpaceOnUse">
<stop stop-color="white" stop-opacity="0.2"/>
<stop offset="1" stop-color="white" stop-opacity="0.58"/>
</linearGradient>
<linearGradient id="paint11_linear" x1="200" y1="-62" x2="200" y2="564" gradientUnits="userSpaceOnUse">
<stop stop-color="white" stop-opacity="0.2"/>
<stop offset="1" stop-color="white" stop-opacity="0.58"/>
</linearGradient>
<linearGradient id="paint12_linear" x1="200" y1="-62" x2="200" y2="564" gradientUnits="userSpaceOnUse">
<stop stop-color="white" stop-opacity="0.2"/>
<stop offset="1" stop-color="white" stop-opacity="0.58"/>
</linearGradient>
<linearGradient id="paint13_linear" x1="199.5" y1="1" x2="199.5" y2="450.5" gradientUnits="userSpaceOnUse">
<stop stop-color="#999999" stop-opacity="0"/>
<stop offset="1" stop-color="#999999"/>
</linearGradient>
</defs>
</svg>
