<svg width="21" height="20" viewBox="0 0 21 20" fill="none" xmlns="http://www.w3.org/2000/svg">
<path d="M20.5179 12.119V19.7692H16.1336V12.6325C16.1336 10.8399 15.5014 9.61572 13.9127 9.61572C12.7026 9.61572 11.9824 10.441 11.6647 11.2388C11.5482 11.5231 11.5194 11.9187 11.5194 12.3193V19.7692H7.13362C7.13362 19.7692 7.19269 7.68098 7.13362 6.42958H11.5194V8.32053C11.5115 8.33507 11.4987 8.3494 11.4907 8.36394H11.5194V8.32053C12.1022 7.41305 13.1415 6.11608 15.471 6.11608C18.3561 6.11608 20.5179 8.02335 20.5179 12.119ZM2.54825 0C1.0474 0 0.0671387 0.996462 0.0671387 2.30464C0.0671387 3.58529 1.01871 4.60906 2.4908 4.60906H2.51794C4.04748 4.60906 4.99905 3.58536 4.99905 2.30464C4.97029 0.996536 4.04748 0 2.54825 0ZM0.327393 19.7692H4.71004V6.42958H0.327393V19.7692Z" fill="#F2F2F2"/>
</svg>
