<svg width="44" height="30" viewBox="0 0 44 30" fill="none" xmlns="http://www.w3.org/2000/svg">
<path d="M43.6449 0.94498C43.6548 0.875327 43.6548 0.804633 43.6449 0.73498C43.6449 0.73498 43.6449 0.69748 43.6449 0.67498C43.6227 0.624596 43.5951 0.576808 43.5624 0.53248L43.4799 0.44998L43.4199 0.389981H43.3749L43.2699 0.33748L43.1424 0.29248H43.0299H42.8049L0.894928 9.36748C0.745183 9.40086 0.609277 9.47936 0.505541 9.59239C0.401804 9.70543 0.335228 9.84755 0.31479 9.99961C0.294353 10.1517 0.321039 10.3063 0.391248 10.4427C0.461457 10.5791 0.571811 10.6907 0.707428 10.7625L12.3774 16.845L14.2599 28.6425C14.272 28.7154 14.2947 28.7862 14.3274 28.8525V28.8975C14.3654 28.9644 14.4135 29.0252 14.4699 29.0775C14.5201 29.1195 14.5756 29.1548 14.6349 29.1825H14.6799H14.7249C14.7995 29.1938 14.8754 29.1938 14.9499 29.1825C15.0442 29.2255 15.1463 29.2484 15.2499 29.25H15.3174L15.4224 29.205L23.6124 24.165L32.0349 29.7C32.1294 29.7624 32.2367 29.8026 32.3488 29.8176C32.461 29.8326 32.5751 29.822 32.6826 29.7867C32.7901 29.7513 32.8882 29.6921 32.9696 29.6134C33.0509 29.5348 33.1135 29.4387 33.1524 29.3325L43.6524 1.26748C43.6804 1.19048 43.6956 1.1094 43.6974 1.02748C43.6974 1.02748 43.6449 0.95998 43.6449 0.94498ZM17.3949 18.8775C17.3539 18.9085 17.3162 18.9437 17.2824 18.9825C17.2265 19.0518 17.1833 19.1305 17.1549 19.215L15.2349 25.215L13.8849 16.77L34.9824 5.89498L17.3949 18.8775ZM37.4874 2.91748L13.0599 15.51L3.24993 10.3875L37.4874 2.91748ZM16.3299 26.8275L18.2949 20.6475L22.2024 23.25L16.3299 26.8275ZM32.0799 27.8925L24.0699 22.6425L19.2249 19.4625L41.3124 3.07498L32.0799 27.8925Z" fill="white"/>
</svg>
